<svg width="72" height="18" viewBox="0 0 72 18" fill="none" xmlns="http://www.w3.org/2000/svg">
<path fill-rule="evenodd" clip-rule="evenodd" d="M27.6932 12.32L26.722 16.848H24.4883L28.1787 0.437869H30.8248L34.2967 16.848H32.0388L31.0919 12.32H27.6932ZM30.8248 10.4938L30.0721 6.5733C29.8536 5.45327 29.6351 3.99316 29.4656 2.82403H29.368C29.1985 4.01711 28.9549 5.52632 28.7372 6.5733L27.9602 10.4938H30.8248ZM42.8228 0V13.8048C42.8228 14.7061 42.8714 16.021 42.9196 16.8484H40.9533L40.8077 15.4122H40.7348C40.3464 16.2397 39.448 17.0436 38.2587 17.0436C36.0736 17.0436 34.7382 14.657 34.7382 10.9812C34.7382 6.79325 36.5102 4.82102 38.3801 4.82102C39.3266 4.82102 40.0793 5.2597 40.492 6.16019H40.5406V0H42.8228ZM40.5402 9.51988C40.5402 9.30115 40.5402 9.03332 40.5159 8.78902C40.3945 7.71809 39.7875 6.79284 38.9624 6.79284C37.5295 6.79284 37.0444 8.78902 37.0444 10.9808C37.0444 13.4157 37.6756 15.1196 38.8896 15.1196C39.3995 15.1196 40.0789 14.8518 40.4673 13.44C40.5159 13.2452 40.5402 12.9526 40.5402 12.6856V9.51988ZM48.259 17.0432C45.9043 17.0432 44.2043 15.0223 44.2043 10.9569C44.2043 6.64675 46.2191 4.82061 48.38 4.82061C50.7108 4.82061 52.3857 6.91459 52.3857 10.9078C52.3857 15.607 50.0791 17.0432 48.2829 17.0432H48.259ZM48.3314 15.2418C49.7392 15.2418 50.0553 12.7339 50.0553 10.9325C50.0553 9.15466 49.7396 6.62281 48.2833 6.62281C46.7776 6.62281 46.4866 9.15466 46.4866 10.9325C46.4866 12.9043 46.8265 15.2418 48.3076 15.2418H48.3314ZM53.7615 0H56.0434V6.35457H56.0919C56.6989 5.28364 57.5244 4.82061 58.5684 4.82061C60.5832 4.82061 61.8461 7.10938 61.8461 10.7373C61.8461 14.9736 60.1223 17.0432 58.18 17.0432C57.0145 17.0432 56.359 16.4097 55.8487 15.3627H55.7524L55.6306 16.848H53.6644C53.713 16.0449 53.7615 14.7057 53.7615 13.8044V0ZM56.0434 12.66C56.0434 12.9287 56.0676 13.1965 56.1405 13.3909C56.5043 14.8279 57.2088 15.1196 57.6697 15.1196C59.0293 15.1196 59.5392 13.3183 59.5392 10.8834C59.5392 8.61899 59.0055 6.79284 57.6454 6.79284C56.8927 6.79284 56.2858 7.69374 56.1158 8.54594C56.0672 8.78943 56.043 9.10636 56.043 9.34944V12.66H56.0434ZM65.2137 11.3943C65.238 14.4379 66.5487 15.1923 67.9326 15.1923C68.7581 15.1923 69.4622 14.9979 69.972 14.754L70.312 16.4097C69.6079 16.7749 68.5396 16.9701 67.4956 16.9701C64.5339 16.9701 62.98 14.7301 62.98 11.0778C62.98 7.20637 64.752 4.82021 67.2042 4.82021C69.6564 4.82021 70.7975 7.18202 70.7975 10.1529C70.7975 10.7369 70.7729 11.1025 70.749 11.4187L65.2137 11.3943ZM68.6367 9.76337C68.661 7.66939 67.9326 6.54976 67.0347 6.54976C65.8446 6.54976 65.3104 8.27851 65.238 9.76337H68.6367ZM11.6246 0.481445H18.4418V16.8478L11.6246 0.481445ZM6.82211 0.481445H0V16.8478L6.82211 0.481445ZM9.22374 6.513L13.5673 16.8478H10.721L9.42203 13.5562H6.24264L9.22374 6.513ZM70.8033 4.83084C70.7403 4.80416 70.6726 4.79026 70.6042 4.78994H70.6018C70.5331 4.79016 70.4652 4.80395 70.4019 4.83053C70.3385 4.85711 70.2811 4.89596 70.2327 4.94485C70.1844 4.99374 70.1461 5.05172 70.1202 5.11545C70.0942 5.17919 70.081 5.24744 70.0814 5.31628C70.0814 5.61374 70.3149 5.84505 70.6018 5.84505C70.8911 5.84505 71.1198 5.61334 71.1198 5.31628C71.1207 5.2477 71.108 5.17961 71.0826 5.11594C71.0571 5.05228 71.0193 4.99432 70.9714 4.94538C70.9234 4.89645 70.8663 4.85752 70.8033 4.83084ZM70.1818 5.31628C70.1818 5.07077 70.3711 4.87151 70.6018 4.87151H70.6042C70.8373 4.87151 71.0238 5.07077 71.0238 5.31872C71.0238 5.56667 70.8373 5.76552 70.6042 5.76308C70.3711 5.76308 70.1818 5.56667 70.1818 5.31628ZM70.4108 5.62308H70.5039H70.5043V5.37025H70.5694C70.6443 5.37025 70.6815 5.39826 70.6957 5.47333C70.7074 5.55043 70.7212 5.604 70.7353 5.62308H70.8333C70.8235 5.604 70.8098 5.5691 70.7956 5.4778C70.7843 5.39136 70.7491 5.34428 70.6977 5.33495V5.33049C70.7608 5.31182 70.8122 5.26475 70.8122 5.18764C70.8122 5.13123 70.7936 5.09146 70.7584 5.0659C70.7232 5.04033 70.6653 5.02126 70.5767 5.02126C70.511 5.02126 70.4656 5.02769 70.4198 5.03418L70.4108 5.03546V5.62308ZM70.5714 5.29761H70.5039V5.09877C70.5201 5.09633 70.5415 5.0939 70.5714 5.0939C70.6767 5.0939 70.7143 5.14543 70.7143 5.19697C70.7143 5.26961 70.6483 5.29761 70.5714 5.29761ZM19.5422 0.522335C19.4792 0.495657 19.4115 0.481761 19.3431 0.481445H19.3407C19.2721 0.481658 19.2041 0.495448 19.1408 0.522029C19.0775 0.54861 19.02 0.587458 18.9716 0.636349C18.9233 0.68524 18.8851 0.743214 18.8591 0.80695C18.8331 0.870686 18.8199 0.938933 18.8203 1.00778C18.8203 1.30524 19.0538 1.53655 19.3407 1.53655C19.63 1.53655 19.8587 1.30484 19.8587 1.00778C19.8596 0.939194 19.8469 0.871106 19.8215 0.807446C19.796 0.743785 19.7582 0.685814 19.7103 0.636879C19.6623 0.587944 19.6052 0.549014 19.5422 0.522335ZM18.9207 1.00778C18.9207 0.762266 19.1097 0.563012 19.3407 0.563012H19.3431C19.5762 0.563012 19.7632 0.762267 19.7632 1.01022C19.7632 1.25817 19.5762 1.45701 19.3431 1.45458C19.1096 1.45458 18.9207 1.25817 18.9207 1.00778ZM19.1493 1.31458H19.2428V1.06216H19.3079C19.3828 1.06216 19.42 1.09016 19.4342 1.16524C19.4455 1.24234 19.4597 1.29591 19.4738 1.31498H19.5718C19.5625 1.29591 19.5483 1.26101 19.5345 1.1697C19.5228 1.08286 19.4876 1.03578 19.4362 1.02645V1.02199C19.4993 1.00332 19.5507 0.956243 19.5507 0.879139C19.5507 0.823137 19.5321 0.782963 19.4969 0.757397C19.4621 0.731425 19.4038 0.713163 19.3152 0.713163C19.2596 0.71322 19.2041 0.717833 19.1493 0.72696V1.31458ZM19.3104 0.989115H19.2428V0.790268C19.259 0.787834 19.28 0.785398 19.3104 0.785398C19.4156 0.785398 19.4528 0.836936 19.4528 0.888474C19.4528 0.961114 19.3872 0.989115 19.3104 0.989115Z" fill="#4F5461"/>
</svg>
