<svg width="114" height="36" viewBox="0 0 114 36" fill="none" xmlns="http://www.w3.org/2000/svg">
<path d="M80.1208 9.0188H77.6802L77.6914 26.9682H87.577V24.748H80.132L80.1208 9.0188Z" fill="#8C929D"/>
<path d="M96.9864 23.8181C96.5952 24.219 96.1256 24.5374 95.606 24.7538C95.0864 24.9703 94.5276 25.0803 93.9636 25.0773C92.1051 25.0773 91.355 24.1716 91.355 22.9897C91.355 21.2113 92.6089 20.3608 95.2735 20.3608C95.8507 20.363 96.427 20.4073 96.9976 20.4933V23.8181H96.9864ZM94.4562 12.938C92.5588 12.9322 90.7199 13.5852 89.2615 14.7827L90.1235 16.2628C91.1199 15.6884 92.3403 15.114 94.0979 15.114C96.1019 15.114 96.9864 16.1303 96.9864 17.8313V18.7039C96.4271 18.6174 95.862 18.5731 95.2959 18.5714C91.0192 18.5714 88.8473 20.0515 88.8473 23.1443C88.8473 25.9168 90.5714 27.3086 93.1799 27.3086C94.9376 27.3086 96.6281 26.5133 97.2103 25.2209L97.6581 26.9772H99.3822V17.7871C99.371 14.8821 98.0947 12.938 94.4562 12.938Z" fill="#8C929D"/>
<path d="M107.255 25.161C106.337 25.161 105.531 25.0506 104.927 24.7744V16.4791C105.755 15.7942 106.785 15.2972 108.095 15.2972C110.457 15.2972 111.364 16.943 111.364 19.605C111.364 23.3827 109.897 25.161 107.255 25.161ZM108.285 12.9444C107.652 12.9406 107.025 13.0696 106.446 13.3228C105.867 13.5761 105.349 13.9479 104.927 14.4135V12.0917L104.916 9.021H102.531L102.542 26.5285C103.74 27.0255 105.375 27.2906 107.155 27.2906C111.711 27.2906 113.905 24.4188 113.905 19.4592C113.894 15.538 111.868 12.9422 108.285 12.9422" fill="#8C929D"/>
<path d="M53.549 10.9673C55.7097 10.9673 57.1092 11.6742 58.016 12.3922L59.0684 10.5918C57.6465 9.35464 55.7209 8.69189 53.661 8.69189C48.4663 8.69189 44.8277 11.8178 44.8277 18.125C44.8277 24.7303 48.7573 27.304 53.2467 27.304C55.1041 27.3082 56.9446 26.9555 58.6653 26.2657L58.6093 19.2075V16.9873H51.9436V19.2075H56.1978L56.2538 24.5646C55.694 24.8408 54.7312 25.0617 53.4214 25.0617C49.8164 25.0617 47.3982 22.8194 47.3982 18.1029C47.387 13.298 49.8836 10.9673 53.5445 10.9673" fill="#8C929D"/>
<path d="M70.7357 9.01465H68.351L68.3622 12.0301V22.4462C68.3622 25.3513 69.6385 27.2953 73.2771 27.2953C73.7691 27.2966 74.2602 27.2522 74.7438 27.1628V25.053C74.377 25.1078 74.0063 25.1337 73.6354 25.1303C71.6314 25.1303 70.7469 24.1141 70.7469 22.4131V15.2334H74.7438V13.2672H70.7503L70.7391 9.01465H70.7357Z" fill="#8C929D"/>
<path d="M62.2848 26.9682H64.6692V13.2715H62.2848V26.9682Z" fill="#8C929D"/>
<path d="M62.2848 11.382H64.6692V9.0293H62.2848V11.382Z" fill="#8C929D"/>
<path d="M37.7236 20.463L35.6065 14.0432L31.4172 1.3097C31.3689 1.16764 31.2767 1.04413 31.1534 0.956616C31.0302 0.869105 30.8822 0.822021 30.7303 0.822021C30.5785 0.822021 30.4305 0.869105 30.3072 0.956616C30.184 1.04413 30.0917 1.16764 30.0435 1.3097L25.8564 14.0355H11.9359L7.7466 1.3097C7.69837 1.16764 7.60611 1.04413 7.48286 0.956616C7.35961 0.869105 7.2116 0.822021 7.05976 0.822021C6.90791 0.822021 6.7599 0.869105 6.63665 0.956616C6.5134 1.04413 6.42114 1.16764 6.37292 1.3097L2.19141 14.0355L0.0732289 20.463C-0.0206489 20.7484 -0.0207498 21.0558 0.0729402 21.3412C0.16663 21.6267 0.349322 21.8756 0.594938 22.0525L18.895 35.1749L37.1951 22.0525C37.4418 21.8764 37.6257 21.6278 37.7206 21.3423C37.8155 21.0569 37.8166 20.7491 37.7236 20.463Z" fill="#FC6D26"/>
<path d="M18.8996 35.163L25.8565 14.0347H11.9406L18.8996 35.163Z" fill="#E24329"/>
<path d="M18.8941 35.1642L11.935 14.0347H2.19492L18.8941 35.1642Z" fill="#FC6D26"/>
<path d="M2.18827 14.0432L0.0700856 20.463C-0.0237922 20.7484 -0.0238931 21.0557 0.0697969 21.3412C0.163487 21.6266 0.346179 21.8756 0.591795 22.0525L18.8919 35.176L2.18827 14.0432Z" fill="#FCA326"/>
<path d="M2.19089 14.046H11.9433L7.74608 1.3202C7.69785 1.17814 7.60559 1.05462 7.48234 0.967114C7.35909 0.879602 7.21108 0.83252 7.05924 0.83252C6.90739 0.83252 6.75938 0.879602 6.63613 0.967114C6.51288 1.05462 6.42062 1.17814 6.3724 1.3202L2.19089 14.046Z" fill="#E24329"/>
<path d="M18.898 35.1642L25.8549 14.0347H35.6062L18.898 35.1642Z" fill="#FC6D26"/>
<path d="M35.6056 14.043L37.7249 20.4628C37.8188 20.7481 37.8189 21.0555 37.7252 21.3409C37.6315 21.6264 37.4488 21.8753 37.2032 22.0522L18.9019 35.1636L35.6056 14.043Z" fill="#FCA326"/>
<path d="M35.6086 14.046H25.8551L30.0444 1.3202C30.0926 1.17814 30.1849 1.05462 30.3082 0.967114C30.4314 0.879602 30.5794 0.83252 30.7313 0.83252C30.8831 0.83252 31.0311 0.879602 31.1544 0.967114C31.2776 1.05462 31.3699 1.17814 31.4181 1.3202L35.6074 14.046H35.6086Z" fill="#E24329"/>
</svg>
