<svg width="64" height="48" viewBox="0 0 64 48" fill="none" xmlns="http://www.w3.org/2000/svg">
<path d="M30.6043 19.036L25.6259 22.8489C25.1223 20.9353 23.4532 19.5396 21.4245 19.5396H17.8561V28.3309H21.4245C23.4676 28.3309 25.2518 26.9353 25.6259 25.0216L30.5899 28.8489L35.554 25.0216V28.3309H41.1655V26.5468H37.4676V19.5396H35.4245V22.8489L30.705 26.6763L29.6835 25.7842L32 24L34.4173 22.0863L33.0216 20.9353L28.3022 24.6331L27.2806 23.741L32 20.1727L30.6043 19.036ZM19.7698 21.3237H21.295C21.6115 21.3237 21.9281 21.3957 22.2158 21.5252C22.5036 21.6547 22.7626 21.8417 22.9928 22.0863C23.2086 22.3309 23.3957 22.6043 23.5252 22.9353C23.6547 23.2518 23.7266 23.6115 23.7266 24C23.7266 24.3453 23.6691 24.6906 23.5396 25.0072C23.4245 25.3237 23.2518 25.6115 23.036 25.8561C22.8201 26.1007 22.5612 26.3022 22.2734 26.446C21.9856 26.5899 21.6547 26.6619 21.3094 26.6619H19.7698V21.3237ZM47.5396 26.5468V28.3309H41.9281V19.5396H43.9712V26.5468H47.5396ZM32 4C21.0504 4 12 13.0504 12 24C12 34.9496 20.9209 44 32 44C43.0791 44 52 35.0791 52 24C52 12.9209 42.9496 4 32 4ZM32 6.04317C33.2374 6.04317 34.4604 6.17266 35.6259 6.40288C36.7914 6.64748 37.9281 6.99281 39.0072 7.45324C40.0863 7.91367 41.1079 8.46043 42.0576 9.10791C43.0072 9.7554 43.8993 10.4892 44.7194 11.295C45.5252 12.1007 46.259 12.9928 46.9065 13.9568C47.554 14.9065 48.1007 15.9281 48.5612 17.0072C49.0216 18.0863 49.3669 19.2086 49.6115 20.3885C49.8561 21.554 49.9712 22.777 49.9712 24.0144C49.9712 25.2518 49.8417 26.4748 49.6115 27.6403C49.3669 28.8058 49.0216 29.9424 48.5612 31.0216C48.1007 32.1007 47.554 33.1223 46.9065 34.0719C46.259 35.0216 45.5252 35.9137 44.7194 36.7338C43.9137 37.5396 43.0216 38.2734 42.0576 38.9209C41.1079 39.5683 40.0863 40.1151 39.0072 40.5755C37.9281 41.036 36.8058 41.3813 35.6259 41.6259C34.4604 41.8705 33.2374 41.9856 32 41.9856C30.7626 41.9856 29.5396 41.8561 28.3741 41.6259C27.2086 41.3957 26.0719 41.036 24.9928 40.5755C23.9137 40.1151 22.8921 39.5683 21.9424 38.9209C20.9928 38.2734 20.1007 37.5396 19.2806 36.7338C18.4748 35.9281 17.741 35.036 17.0935 34.0719C16.446 33.1223 15.8993 32.1007 15.4388 31.0216C14.9784 29.9424 14.6331 28.8201 14.3885 27.6403C14.1439 26.4748 14.0288 25.2518 14.0288 24.0144C14.0288 22.777 14.1583 21.554 14.3885 20.3885C14.6331 19.223 14.9784 18.0863 15.4388 17.0072C15.8993 15.9281 16.446 14.9065 17.0935 13.9568C17.741 13.0072 18.4748 12.1151 19.2806 11.295C20.0863 10.4892 20.9784 9.7554 21.9424 9.10791C22.8921 8.46043 23.9137 7.91367 24.9928 7.45324C26.0719 6.99281 27.1942 6.64748 28.3741 6.40288C29.5396 6.15827 30.7626 6.04317 32 6.04317Z" fill="#4F5461"/>
</svg>
