<svg width="56" height="16" viewBox="0 0 56 16" fill="none" xmlns="http://www.w3.org/2000/svg">
<path d="M45.5892 4.79897C46.8341 5.4803 47.5666 6.8407 47.7525 8.81643C47.7775 9.08243 47.792 9.399 47.7847 9.51991L47.7714 9.73975L41.813 9.76228L41.8243 10.1467C41.8506 11.0372 42.0259 11.8249 42.3503 12.5097C42.4977 12.821 42.615 12.9907 42.9 13.3049C43.5439 14.0149 44.1844 14.2897 45.1948 14.2897C45.9274 14.2897 46.4543 14.1301 47.0053 13.7411C47.1596 13.6321 47.316 13.543 47.3528 13.543C47.4369 13.543 47.6305 13.8152 47.6305 13.9335C47.6305 14.1272 47.0529 14.752 46.4895 15.1676C46.0281 15.5081 45.2963 15.8163 44.6617 15.9375C44.2173 16.0224 43.219 16.0204 42.7792 15.9338C40.7819 15.5404 39.3535 13.9935 38.8868 11.7186C38.8267 11.426 38.8002 11.0986 38.7851 10.4652C38.7613 9.4631 38.8359 8.84112 39.0727 8.06829C39.5274 6.58436 40.3423 5.53284 41.526 4.90261C42.7754 4.2374 44.4835 4.19383 45.5892 4.79897ZM31.8369 5.03648e-06C31.8745 0.000701267 31.8798 0.574853 31.8605 2.55103C31.8468 3.9536 31.8451 5.10116 31.8566 5.10116C31.8682 5.10116 32.0184 5.03011 32.1905 4.94328C32.7092 4.68153 33.1874 4.56795 33.8818 4.54152C34.3442 4.52392 34.5583 4.53494 34.7955 4.58854C36.3465 4.93898 37.4942 6.32534 37.8953 8.33279C37.9999 8.85646 38.0388 10.1579 37.9693 10.8098C37.9101 11.3654 37.7412 12.1141 37.5654 12.5999C36.9021 14.4331 35.4789 15.6291 33.5909 15.9399C33.156 16.0114 31.7904 16.0204 31.2045 15.9556C30.8051 15.9114 29.5846 15.6895 29.1583 15.5837L28.8633 15.5104L28.8863 13.7902C28.9417 9.64868 28.9486 7.38781 28.9128 5.18909C28.8777 3.03521 28.8675 2.80747 28.7914 2.48887C28.695 2.08516 28.5559 1.80356 28.3886 1.67347C28.3237 1.62293 28.1471 1.55131 27.9963 1.51431C27.495 1.39133 27.5222 1.41105 27.5088 1.16129C27.5011 1.01742 27.5154 0.922379 27.5491 0.893216C27.5942 0.854119 31.7059 -0.00239551 31.8369 5.03648e-06ZM17.637 5.07379C18.8873 5.87753 19.6447 7.30566 19.8554 9.25684C19.9198 9.85261 19.878 11.1109 19.7767 11.6304C19.362 13.7563 18.1541 15.2414 16.3844 15.8012C16.1937 15.8615 15.898 15.9321 15.7273 15.958C15.366 16.0129 14.2634 16.0117 13.9138 15.9561C12.9375 15.8009 12.0837 15.3496 11.4317 14.6443C10.8878 14.056 10.5352 13.409 10.2753 12.5225C9.86943 11.1384 9.86929 9.35888 10.2749 8.00303C10.668 6.68904 11.553 5.54528 12.6362 4.95144C14.1363 4.12906 16.2476 4.18072 17.637 5.07379ZM15.7355 5.5149C15.3524 5.13699 14.7568 5.01329 14.3269 5.22239C13.6998 5.52745 13.2971 6.43051 13.1064 7.95906C12.9707 9.04754 12.9848 11.269 13.1337 12.2679C13.3688 13.8437 13.8377 14.8395 14.499 15.1672C14.7655 15.2992 15.2532 15.2918 15.529 15.1516C16.2895 14.7649 16.6973 13.652 16.8302 11.6001C17.0154 8.74074 16.5861 6.35418 15.7355 5.5149ZM33.4598 5.8745C33.0971 5.6868 32.5856 5.66355 32.1104 5.81316L31.7883 5.91456L31.7518 7.29954C31.7058 9.04567 31.7805 15.0142 31.8496 15.105C31.8746 15.1379 31.9616 15.1725 32.043 15.1819C32.4064 15.2238 32.8144 15.2091 33.0048 15.1474C33.3 15.0517 33.6774 14.7588 33.9047 14.4491C34.3735 13.8104 34.7103 12.8217 34.8954 11.5406C34.984 10.9271 34.996 9.20292 34.915 8.70651C34.6666 7.18255 34.1881 6.25144 33.4598 5.8745ZM43.5011 5.1014C43.4553 5.10127 43.3203 5.13279 43.2011 5.17145C43.0279 5.22763 42.931 5.30048 42.7186 5.53419C42.3237 5.96866 42.0368 6.67422 41.8576 7.65129C41.7832 8.05665 41.708 8.83926 41.7383 8.89278C41.7603 8.93156 43.5653 8.90568 44.4057 8.85453L44.8244 8.82905L44.8001 8.14124C44.7507 6.74789 44.5015 5.80656 44.0661 5.36821C43.9038 5.20489 43.6859 5.10195 43.5011 5.1014ZM50.8312 15.9765C50.1139 15.8925 48.9724 15.6196 48.5923 15.4411L48.4066 15.354L48.3813 14.3496C48.3674 13.7971 48.3513 13.0585 48.3456 12.7081L48.3353 12.0711L48.4465 12.0129C48.5077 11.9809 48.6312 11.9509 48.721 11.9464L48.8842 11.9381L49.0232 12.3118C49.5656 13.7698 50.2018 14.5559 51.0327 14.795C51.3496 14.8862 51.9439 14.887 52.1786 14.7966C52.8358 14.5432 53.1963 13.9997 53.1994 13.2572C53.2031 12.3778 52.7605 11.9553 51.0885 11.242C50.0526 10.8001 49.6913 10.5727 49.261 10.0917C48.7969 9.57289 48.5741 8.98229 48.5323 8.15976C48.4818 7.16581 48.7666 6.3279 49.3978 5.61386C50.033 4.89529 50.8576 4.50583 51.9809 4.39389C52.9701 4.2953 54.4886 4.52443 55.2841 4.89232L55.4292 4.95944L55.4551 5.8547C55.4694 6.34708 55.4841 7.00714 55.4878 7.3215L55.4947 7.89304L55.2998 7.97208C54.9916 8.09704 54.9714 8.08138 54.7999 7.58534C54.3194 6.19491 53.7611 5.537 52.8912 5.33603C52.361 5.21356 51.9182 5.34523 51.5963 5.72104C51.3452 6.01424 51.2472 6.2746 51.2234 6.71183C51.1977 7.18555 51.2753 7.4416 51.5403 7.75829C51.8669 8.14862 52.4021 8.48556 53.4682 8.97208C54.7739 9.56799 55.397 10.0739 55.7357 10.8133C55.9556 11.2935 56.0179 11.677 55.9958 12.4152C55.9792 12.9692 55.963 13.0831 55.8476 13.455C55.4713 14.6677 54.6219 15.466 53.3098 15.8403C52.8654 15.9671 52.8019 15.9737 51.9182 15.9842C51.4089 15.9903 50.9197 15.9868 50.8312 15.9765V15.9765ZM0.0535125 15.7122C0.0200395 15.6975 0.00318777 15.5879 0.00318777 15.385C0.00318777 15.0207 -0.0180736 15.037 0.627214 14.9063C1.12213 14.806 1.2992 14.7034 1.51775 14.3905C1.9415 13.7838 2.03309 12.6155 2.03404 7.80517C2.03493 3.28769 1.95524 2.33737 1.51699 1.63917C1.32255 1.32941 0.994881 1.1612 0.446045 1.08943L0.0233177 1.03414L0.0116588 0.673729L0 0.313314L0.132438 0.28754C0.205279 0.273365 2.76451 0.267375 5.81961 0.27423L11.3744 0.286692L11.4004 0.462563C11.4147 0.559292 11.4382 1.55146 11.4526 2.66739L11.4788 4.69635L11.1924 4.79135C10.7613 4.93436 10.7639 4.9361 10.57 4.37569C10.0936 2.99916 9.54739 2.20597 8.79995 1.80545C8.28444 1.52921 8.04609 1.4958 6.59026 1.4958H5.32327L5.30143 1.72664C5.26048 2.1595 5.19581 4.944 5.19625 6.25531L5.1967 7.56335L5.5691 7.56102C5.77392 7.55974 6.17781 7.54328 6.46662 7.52444C6.90079 7.49612 7.02979 7.47095 7.21143 7.37912C7.65772 7.15349 7.96134 6.65689 8.14735 5.84834L8.24338 5.43092L8.57199 5.41815L8.9006 5.40538V8.047V10.6886L8.57186 10.6758L8.24313 10.6631L8.14982 10.2454C7.97449 9.46058 7.63709 8.89873 7.22016 8.69731C7.02761 8.6043 6.55117 8.55143 5.62949 8.52081L5.1967 8.50643V9.49884C5.1967 10.5803 5.25114 12.0433 5.32092 12.8373C5.41821 13.9442 5.67721 14.5559 6.14235 14.7772C6.23117 14.8195 6.51219 14.8881 6.76683 14.9297C7.02147 14.9714 7.26152 15.0233 7.30027 15.0452C7.39855 15.1006 7.40435 15.6739 7.30705 15.7147C7.2309 15.7466 0.12604 15.7442 0.0535125 15.7122V15.7122ZM19.8996 15.7039C19.8629 15.6784 19.8509 15.577 19.8593 15.3637L19.8714 15.0598L20.0123 15.0271C20.0898 15.0091 20.2563 14.9733 20.3822 14.9476C20.772 14.868 20.9961 14.637 21.1221 14.1844C21.2248 13.8157 21.2701 12.6361 21.2724 10.2674C21.2753 7.37034 21.2201 6.6862 20.9518 6.29837C20.8065 6.08818 20.7017 6.02841 20.349 5.95447C20.1749 5.91798 19.9917 5.87886 19.9418 5.86753C19.8612 5.84919 19.8513 5.82048 19.8513 5.60501C19.8513 5.39548 19.8634 5.35763 19.9418 5.3224C20.0623 5.26829 24.0507 4.39767 24.1781 4.39767H24.2775L24.258 5.0462C24.2473 5.40289 24.2301 5.92225 24.2199 6.20035L24.2013 6.70598L24.3458 6.42142C24.8083 5.51048 25.327 4.945 26.0168 4.59978C26.3955 4.41027 26.6481 4.35371 27.1159 4.35371C27.6707 4.35371 28.2253 4.5514 28.2253 4.74916C28.2253 4.88213 27.2478 7.70271 27.1939 7.72531C27.1676 7.73633 26.9768 7.6566 26.7698 7.54814C26.3381 7.32193 25.9332 7.21133 25.5401 7.21226C25.0505 7.21342 24.5037 7.41034 24.2878 7.66322C24.1954 7.77139 24.195 7.77789 24.1721 9.39331C24.1493 10.9931 24.1981 12.9444 24.2805 13.7293C24.3507 14.3979 24.5134 14.7271 24.8493 14.8803C24.9614 14.9315 25.6706 15.0376 25.902 15.0378C25.9195 15.0378 25.9286 15.1912 25.9221 15.3786L25.9104 15.7194L22.9311 15.7298C21.2926 15.7356 19.9284 15.7239 19.8996 15.7039Z" fill="#4F5461"/>
</svg>
