<svg width="69" height="16" viewBox="0 0 69 16" fill="none" xmlns="http://www.w3.org/2000/svg">
<path d="M55.7726 8.29335C55.746 8.29335 55.7195 8.29335 55.6929 8.30001C55.381 7.28722 55.0756 6.26776 54.757 5.25497C54.2591 3.65582 53.748 2.06333 53.2568 0.470851C53.2037 0.290947 53.124 0.224315 52.9382 0.230979C52.2213 0.244305 51.4977 0.237642 50.7808 0.237642C50.7078 0.237642 50.6348 0.257631 50.575 0.264294C50.575 5.43487 50.575 10.5855 50.575 15.736C51.438 15.736 52.2744 15.736 53.1705 15.736C53.1705 13.3307 53.1705 10.9386 53.1705 8.55321C53.197 8.55321 53.2236 8.55321 53.2502 8.54654C54.0002 10.9453 54.7437 13.3506 55.4872 15.736C56.4895 15.736 57.4454 15.736 58.4145 15.736C58.4145 10.5588 58.4145 5.40155 58.4145 0.257631C57.525 0.257631 56.6687 0.257631 55.7792 0.257631C55.7726 2.95619 55.7726 5.62144 55.7726 8.29335ZM22.244 15.736C22.244 11.4383 22.244 7.17394 22.244 2.90289C22.5759 2.90289 22.8613 2.90289 23.1468 2.90289C23.7707 2.90289 24.1956 3.34265 24.2022 3.97565C24.2022 4.78855 24.2022 5.59478 24.2022 6.40768C24.2022 6.54095 24.1823 6.67421 24.1557 6.80081C23.9898 7.54041 23.5318 8.02016 22.8281 8.29335C22.7219 8.33332 22.5693 8.48658 22.5825 8.55321C22.702 9.10625 22.8547 9.64596 23.0007 10.1923C23.2662 11.1985 23.5384 12.2046 23.8039 13.2107C24.0296 14.0569 24.2487 14.9032 24.4677 15.7427C25.3904 15.7427 26.2799 15.7427 27.1893 15.7427C27.1694 15.6428 27.1628 15.5695 27.1428 15.4962C26.6052 13.6372 26.0741 11.7715 25.5298 9.91248C25.4767 9.72591 25.4701 9.60598 25.6426 9.45939C26.1339 9.02629 26.479 8.47991 26.6317 7.84692C27.0101 6.3144 26.9703 4.74857 26.7645 3.21605C26.5255 1.42368 24.9722 0.244305 23.16 0.244305C22.0648 0.244305 20.9695 0.244305 19.8742 0.244305C19.7813 0.244305 19.6817 0.257631 19.5755 0.264294C19.5755 5.43487 19.5755 10.5855 19.5755 15.7494C20.465 15.736 21.3213 15.736 22.244 15.736ZM16.1768 8.00017C16.1768 6.58759 16.1702 5.18167 16.1768 3.76909C16.1768 3.02949 16.0043 2.34985 15.6192 1.71685C14.8824 0.484177 13.2296 -0.235439 11.8289 0.0843901C9.99021 0.504166 8.87502 1.91008 8.87502 3.80241C8.87502 6.58093 8.87502 9.35278 8.87502 12.1313C8.87502 12.3645 8.89494 12.5977 8.92149 12.8243C9.23348 15.2097 11.7161 16.6422 13.9266 15.7161C15.3073 15.1364 16.1702 13.8304 16.1702 12.3379C16.1768 10.8853 16.1768 9.4394 16.1768 8.00017ZM39.9476 0.244305C39.9476 0.38423 39.9476 0.497503 39.9476 0.604113C39.9476 4.58865 39.9476 8.57986 39.9476 12.5644C39.9476 13.224 40.16 13.8371 40.5384 14.3701C41.6801 15.9693 43.5719 16.449 45.3044 15.5361C46.4595 14.9298 47.1764 13.9237 47.1896 12.611C47.2295 8.6265 47.2029 4.6353 47.2029 0.650755C47.2029 0.517492 47.1896 0.390893 47.183 0.257631C46.3068 0.257631 45.4571 0.257631 44.5743 0.257631C44.5743 0.397556 44.5743 0.517492 44.5743 0.637428C44.5743 4.4354 44.5743 8.23338 44.5743 12.0314C44.5743 12.1313 44.5809 12.2312 44.5676 12.3312C44.5145 12.7576 44.3154 13.0908 43.9038 13.2507C43.5587 13.3906 43.2267 13.3173 42.9413 13.0841C42.6094 12.8109 42.5563 12.4378 42.5563 12.038C42.5563 8.24004 42.5563 4.44207 42.5563 0.644092C42.5563 0.517492 42.5563 0.38423 42.5563 0.250968C41.6801 0.244305 40.8371 0.244305 39.9476 0.244305ZM68.2521 2.89622C68.2521 2.09665 68.2388 1.34372 68.2587 0.590787C68.2653 0.324262 68.2056 0.230979 67.9135 0.230979C66.0018 0.244305 64.0834 0.237642 62.1716 0.237642C62.0654 0.237642 61.9592 0.237642 61.8597 0.237642C61.8597 5.43487 61.8597 10.5855 61.8597 15.7427C63.9905 15.7427 66.1013 15.7427 68.2255 15.7427C68.2255 14.8565 68.2255 13.9903 68.2255 13.0908C66.9643 13.0908 65.7296 13.0908 64.4684 13.0908C64.4618 12.9175 64.4418 12.7776 64.4418 12.6377C64.4418 11.6182 64.4418 10.5921 64.4418 9.57266C64.4418 9.11957 64.4418 9.11957 64.8866 9.11957C65.5371 9.11957 66.1876 9.11957 66.8448 9.11957C66.8448 8.20673 66.8448 7.34052 66.8448 6.44766C66.0416 6.44766 65.2716 6.44766 64.4817 6.44766C64.4817 5.25497 64.4817 4.09558 64.4817 2.90955C65.7562 2.89622 66.9776 2.89622 68.2521 2.89622ZM2.65521 2.88956C3.91643 2.88956 5.13782 2.88956 6.35258 2.88956C6.35258 1.99004 6.35258 1.1305 6.35258 0.257631C4.22842 0.257631 2.12416 0.257631 0 0.257631C0 5.42821 0 10.5855 0 15.7427C0.882856 15.7427 1.73916 15.7427 2.63529 15.7427C2.63529 15.5961 2.63529 15.4629 2.63529 15.3296C2.63529 13.3773 2.64193 11.425 2.62865 9.46605C2.62865 9.19953 2.69503 9.09958 2.98047 9.10625C3.65091 9.12624 4.32135 9.11291 5.00506 9.11291C5.00506 8.20672 5.00506 7.34052 5.00506 6.43434C4.21514 6.43434 3.44513 6.43434 2.65521 6.43434C2.65521 5.2483 2.65521 4.09558 2.65521 2.88956ZM34.6571 15.7427C34.6571 11.4517 34.6571 7.18727 34.6571 2.89622C35.4337 2.89622 36.1639 2.89622 36.9074 2.89622C36.9074 2.00337 36.9074 1.1305 36.9074 0.244305C34.4978 0.244305 32.1147 0.244305 29.7051 0.244305C29.7051 1.1305 29.7051 1.9967 29.7051 2.91621C30.4685 2.91621 31.2119 2.91621 31.9952 2.91621C31.9952 7.21392 31.9952 11.4717 31.9952 15.7427C32.8847 15.7427 33.7344 15.7427 34.6571 15.7427Z" fill="white"/>
<path d="M55.772 8.29137C55.772 5.61946 55.772 2.94755 55.772 0.255656C56.6615 0.255656 57.5178 0.255656 58.4073 0.255656C58.4073 5.40624 58.4073 10.5568 58.4073 15.7341C57.4382 15.7341 56.4823 15.7341 55.4799 15.7341C54.7365 13.3487 53.9864 10.9433 53.2429 8.54457C53.2164 8.54457 53.1898 8.54457 53.1633 8.55123C53.1633 10.9433 53.1633 13.3287 53.1633 15.7341C52.2671 15.7341 51.4308 15.7341 50.5678 15.7341C50.5678 10.5835 50.5678 5.4329 50.5678 0.262319C50.6342 0.255656 50.7006 0.235667 50.7736 0.235667C51.4905 0.235667 52.214 0.24233 52.9309 0.229004C53.1234 0.229004 53.1965 0.288972 53.2496 0.468876C53.7408 2.06802 54.2519 3.66051 54.7498 5.25299C55.0684 6.26578 55.3737 7.27858 55.6857 8.29803C55.7189 8.29803 55.7455 8.29137 55.772 8.29137Z" fill="#4F5461"/>
<path d="M22.2447 15.7341C21.322 15.7341 20.4657 15.7341 19.5828 15.7341C19.5828 10.5702 19.5828 5.41957 19.5828 0.248993C19.689 0.24233 19.7886 0.229004 19.8815 0.229004C20.9768 0.229004 22.0721 0.229004 23.1674 0.229004C24.9795 0.229004 26.5262 1.40837 26.7718 3.20075C26.9776 4.73327 27.0174 6.2991 26.639 7.83162C26.4864 8.46461 26.1412 9.01765 25.65 9.44409C25.484 9.59068 25.484 9.71061 25.5371 9.89718C26.0814 11.7562 26.6125 13.6219 27.1502 15.4809C27.1701 15.5542 27.1767 15.6275 27.1966 15.7274C26.2872 15.7274 25.3977 15.7274 24.475 15.7274C24.256 14.8812 24.0303 14.035 23.8112 13.1954C23.5457 12.1893 23.2736 11.1832 23.008 10.177C22.862 9.63066 22.7093 9.09094 22.5898 8.53791C22.5766 8.47128 22.7292 8.31802 22.8355 8.27804C23.5391 8.00486 23.9971 7.53178 24.1631 6.78551C24.1896 6.65891 24.2095 6.52565 24.2095 6.39238C24.2162 5.57948 24.2162 4.77325 24.2095 3.96035C24.2095 3.32735 23.778 2.89425 23.1541 2.88759C22.8686 2.88759 22.5832 2.88759 22.2513 2.88759C22.2447 7.17863 22.2447 11.4364 22.2447 15.7341Z" fill="#4F5461"/>
<path d="M39.9474 0.242676C40.8435 0.242676 41.6799 0.242676 42.5694 0.242676C42.5694 0.382601 42.5694 0.5092 42.5694 0.635799C42.5694 4.43377 42.5694 8.23175 42.5694 12.0297C42.5694 12.4295 42.6225 12.8026 42.9544 13.0758C43.2465 13.309 43.5717 13.3823 43.9169 13.2424C44.3285 13.0825 44.5276 12.7493 44.5807 12.3229C44.594 12.2229 44.5874 12.123 44.5874 12.0231C44.5874 8.22508 44.5874 4.42711 44.5874 0.629136C44.5874 0.5092 44.5874 0.389264 44.5874 0.249339C45.4702 0.249339 46.3132 0.249339 47.1961 0.249339C47.2027 0.382601 47.216 0.515863 47.216 0.642463C47.216 4.627 47.2426 8.61821 47.2027 12.6027C47.1895 13.922 46.4659 14.9215 45.3175 15.5279C43.5784 16.4407 41.6932 15.961 40.5514 14.3618C40.1731 13.8288 39.9607 13.2224 39.9607 12.5561C39.954 8.57156 39.9607 4.58036 39.9607 0.595821C39.9474 0.495874 39.9474 0.389264 39.9474 0.242676Z" fill="#4F5461"/>
<path d="M68.2518 2.89439C66.9773 2.89439 65.7493 2.89439 64.4881 2.89439C64.4881 4.08043 64.4881 5.24647 64.4881 6.4325C65.278 6.4325 66.048 6.4325 66.8512 6.4325C66.8512 7.32536 66.8512 8.19823 66.8512 9.10441C66.1941 9.10441 65.5435 9.10441 64.893 9.10441C64.4483 9.10441 64.4483 9.10441 64.4483 9.5575C64.4483 10.577 64.4483 11.6031 64.4483 12.6225C64.4483 12.7625 64.4615 12.909 64.4748 13.0756C65.736 13.0756 66.9707 13.0756 68.2319 13.0756C68.2319 13.9751 68.2319 14.8414 68.2319 15.7275C66.1011 15.7275 63.9969 15.7275 61.8661 15.7275C61.8661 10.5703 61.8661 5.41971 61.8661 0.222483C61.9657 0.222483 62.0719 0.222483 62.1781 0.222483C64.0898 0.222483 66.0082 0.229147 67.9199 0.21582C68.2054 0.21582 68.2718 0.309104 68.2651 0.575628C68.2452 1.34189 68.2518 2.09482 68.2518 2.89439Z" fill="#4F5461"/>
<path d="M2.65521 2.88762C2.65521 4.1003 2.65521 5.24636 2.65521 6.43239C3.43849 6.43239 4.2085 6.43239 5.00506 6.43239C5.00506 7.33858 5.00506 8.20478 5.00506 9.11096C4.32799 9.11096 3.65091 9.12429 2.98047 9.1043C2.69503 9.09764 2.62865 9.19758 2.62865 9.46411C2.63529 11.4164 2.63529 13.3687 2.63529 15.3276C2.63529 15.4609 2.63529 15.5875 2.63529 15.7408C1.7458 15.7408 0.882856 15.7408 0 15.7408C0 10.5768 0 5.42626 0 0.249023C2.11753 0.249023 4.22841 0.249023 6.35258 0.249023C6.35258 1.12189 6.35258 1.98143 6.35258 2.88095C5.13782 2.88762 3.91643 2.88762 2.65521 2.88762Z" fill="#4F5461"/>
<path d="M34.6566 15.7411C33.7339 15.7411 32.8843 15.7411 31.9948 15.7411C31.9948 11.47 31.9948 7.21229 31.9948 2.91458C31.2115 2.91458 30.468 2.91458 29.7047 2.91458C29.7047 2.00174 29.7047 1.12887 29.7047 0.242676C32.1143 0.242676 34.4973 0.242676 36.9069 0.242676C36.9069 1.12221 36.9069 1.99507 36.9069 2.89459C36.1634 2.89459 35.4333 2.89459 34.6566 2.89459C34.6566 7.18564 34.6566 11.45 34.6566 15.7411Z" fill="#4F5461"/>
<path d="M16.1764 7.99829C16.1764 9.44418 16.1764 10.8834 16.1764 12.3293C16.1764 13.8285 15.3134 15.1278 13.9327 15.7075C11.7223 16.6337 9.23964 15.2078 8.92765 12.8157C8.89446 12.5892 8.88119 12.356 8.88119 12.1228C8.87455 9.34424 8.88119 6.57238 8.88119 3.79386C8.88119 1.90154 9.99637 0.495621 11.8351 0.0758451C13.2357 -0.243984 14.8952 0.475632 15.6254 1.70831C16.0038 2.3413 16.183 3.02094 16.183 3.76055C16.1764 5.17313 16.1764 6.58571 16.1764 7.99829ZM13.5145 8.01828C13.5145 7.37195 13.5145 6.7323 13.5145 6.08597C13.5145 5.29973 13.5145 4.51348 13.5145 3.72057C13.5145 3.29413 13.3287 2.98096 12.9503 2.78107C12.5985 2.5945 12.2666 2.66113 11.9546 2.87435C11.636 3.09424 11.543 3.42739 11.543 3.80053C11.543 6.58571 11.543 9.37089 11.543 12.1561C11.543 12.236 11.5364 12.3093 11.5497 12.3893C11.6094 12.929 12.0475 13.3221 12.5786 13.3088C13.1229 13.2955 13.5145 12.8624 13.5212 12.2427C13.5145 10.8368 13.5145 9.42419 13.5145 8.01828Z" fill="#4F5461"/>
</svg>
