<svg width="101" height="48" viewBox="0 0 101 48" fill="none" xmlns="http://www.w3.org/2000/svg">
<path d="M68.2968 17.0173H66.4199L66.4285 30.9708H74.0309V29.2449H68.3054L68.2968 17.0173Z" fill="#4F5461"/>
<path d="M81.2652 28.5234C80.9644 28.8351 80.6032 29.0826 80.2036 29.2508C79.804 29.4191 79.3743 29.5047 78.9406 29.5023C77.5113 29.5023 76.9345 28.7982 76.9345 27.8794C76.9345 26.497 77.8988 25.8358 79.9479 25.8358C80.3919 25.8375 80.835 25.8719 81.2739 25.9388V28.5234H81.2652ZM79.3194 20.0655C77.8603 20.061 76.446 20.5686 75.3244 21.4995L75.9874 22.6501C76.7537 22.2036 77.6921 21.7571 79.0439 21.7571C80.5851 21.7571 81.2652 22.547 81.2652 23.8694V24.5478C80.8351 24.4805 80.4005 24.446 79.9652 24.4447C76.6762 24.4447 75.0059 25.5953 75.0059 27.9996C75.0059 30.1549 76.3318 31.2369 78.3379 31.2369C79.6896 31.2369 80.9897 30.6186 81.4374 29.614L81.7818 30.9793H83.1078V23.8351C83.0991 21.5767 82.1176 20.0655 79.3194 20.0655Z" fill="#4F5461"/>
<path d="M89.1646 29.5656C88.4586 29.5656 87.8387 29.4797 87.3737 29.265V22.8164C88.0109 22.284 88.803 21.8976 89.8103 21.8976C91.627 21.8976 92.3244 23.177 92.3244 25.2464C92.3244 28.1831 91.1965 29.5656 89.1646 29.5656ZM89.9567 20.0686C89.4696 20.0656 88.9874 20.1659 88.5421 20.3628C88.0969 20.5597 87.6986 20.8487 87.3737 21.2107V19.4057L87.3651 17.0186H85.5312L85.5399 30.6286C86.4611 31.015 87.7181 31.2211 89.0871 31.2211C92.5913 31.2211 94.2788 28.9885 94.2788 25.1331C94.2702 22.0848 92.7118 20.0669 89.9567 20.0669" fill="#4F5461"/>
<path d="M47.8613 18.5324C49.523 18.5324 50.5992 19.082 51.2966 19.6401L52.106 18.2405C51.0125 17.2788 49.5316 16.7635 47.9474 16.7635C43.9525 16.7635 41.1543 19.1936 41.1543 24.0966C41.1543 29.2315 44.1763 31.2322 47.6289 31.2322C49.0573 31.2355 50.4727 30.9614 51.796 30.4251L51.7529 24.9381V23.2122H46.6267V24.9381H49.8984L49.9415 29.1027C49.511 29.3174 48.7705 29.4891 47.7632 29.4891C44.9908 29.4891 43.1311 27.746 43.1311 24.0795C43.1225 20.3442 45.0425 18.5324 47.8579 18.5324" fill="#4F5461"/>
<path d="M61.0781 17.0167H59.2441L59.2527 19.3609V27.4582C59.2527 29.7165 60.2343 31.2278 63.0325 31.2278C63.4109 31.2287 63.7885 31.1942 64.1604 31.1247V29.4847C63.8783 29.5273 63.5933 29.5474 63.308 29.5448C61.7669 29.5448 61.0867 28.7548 61.0867 27.4324V21.8511H64.1604V20.3226H61.0893L61.0806 17.0167H61.0781Z" fill="#4F5461"/>
<path d="M54.582 30.9709H56.4159V20.3234H54.582V30.9709Z" fill="#4F5461"/>
<path d="M54.582 18.8558H56.4159V17.0269H54.582V18.8558Z" fill="#4F5461"/>
<path d="M35.7339 25.5565L34.2031 20.8656C34.1947 20.8221 34.182 20.7795 34.1652 20.7385L31.0949 11.3102C31.0124 11.0673 30.8553 10.8563 30.6459 10.7073C30.4366 10.5583 30.1855 10.4787 29.9283 10.4799C29.6717 10.4784 29.4213 10.559 29.214 10.7098C29.0067 10.8606 28.8533 11.0738 28.7763 11.3179L25.849 20.3023H16.6098L13.6782 11.3171C13.6016 11.0738 13.449 10.8613 13.2426 10.7107C13.0363 10.56 12.7871 10.4792 12.5314 10.4799H12.5245C12.267 10.4799 12.016 10.5609 11.8074 10.7114C11.5987 10.8619 11.4429 11.0741 11.3621 11.3179L8.28931 20.7582C8.28931 20.766 8.28243 20.7737 8.27984 20.7814L6.72147 25.5565C6.60646 25.9066 6.60585 26.2841 6.71973 26.6345C6.83362 26.985 7.05611 27.2903 7.35515 27.5066L20.8191 37.2663C20.9377 37.352 21.0806 37.3978 21.2271 37.3971C21.3736 37.3963 21.516 37.349 21.6336 37.262L35.1002 27.5066C35.3993 27.2903 35.6217 26.985 35.7356 26.6345C35.8495 26.2841 35.8489 25.9066 35.7339 25.5565ZM15.6076 21.6813L19.3615 33.2004L10.3522 21.6813H15.6076ZM23.0982 33.203L26.6971 22.1596L26.8529 21.6813H32.1126L23.9617 32.0953L23.0982 33.203ZM29.9404 12.2024L32.5784 20.3023H27.2989L29.9404 12.2024ZM25.4021 21.6762L22.7873 29.7013L21.2273 34.4799L17.0584 21.6762H25.4021ZM12.5184 12.2024L15.1617 20.3023H9.88557L12.5184 12.2024ZM8.16533 26.3954C8.10189 26.3495 8.05471 26.2847 8.03057 26.2103C8.00643 26.1359 8.00659 26.0558 8.03102 25.9816L9.18818 22.4361L17.6749 33.2872L8.16533 26.3954ZM34.29 26.3954L24.7797 33.2829L24.8124 33.2417L33.2672 22.4361L34.4235 25.9807C34.4481 26.055 34.4484 26.1352 34.4244 26.2097C34.4004 26.2842 34.3534 26.3493 34.29 26.3954Z" fill="#4F5461"/>
</svg>
