<svg width="124" height="48" viewBox="0 0 124 48" fill="none" xmlns="http://www.w3.org/2000/svg">
<path d="M14.9996 39C22.9525 39 29.3996 32.5529 29.3996 24.6C29.3996 16.6471 22.9525 10.2 14.9996 10.2C7.04671 10.2 0.599609 16.6471 0.599609 24.6C0.599609 32.5529 7.04671 39 14.9996 39Z" fill="#4F5461"/>
<path d="M16.919 17.4H9.95898V31.8H12.839V27.48H16.919C18.2557 27.48 19.5376 26.949 20.4828 26.0038C21.428 25.0587 21.959 23.7767 21.959 22.44C21.959 21.1033 21.428 19.8214 20.4828 18.8762C19.5376 17.931 18.2557 17.4 16.919 17.4ZM16.919 24.6H12.839V20.28H16.919C17.4919 20.28 18.0413 20.5076 18.4463 20.9127C18.8514 21.3178 19.079 21.8672 19.079 22.44C19.079 23.0129 18.8514 23.5623 18.4463 23.9674C18.0413 24.3725 17.4919 24.6 16.919 24.6Z" fill="white"/>
<path d="M39 29.3999V19.7999H43.41C45.4608 19.7999 46.5768 21.1859 46.5768 22.8395C46.5768 24.4931 45.4464 25.8647 43.41 25.8647H41.01V29.3999H39ZM44.5284 22.8395C44.5284 22.0475 43.9188 21.5675 43.128 21.5675H41.0076V24.0983H43.128C43.92 24.0983 44.5284 23.6171 44.5284 22.8395Z" fill="#4F5461"/>
<path d="M47.7988 29.4003V22.4019H49.5988V23.3211C50.0932 22.7211 50.9284 22.2327 51.7768 22.2327V23.9847C51.6136 23.9531 51.4475 23.9391 51.2812 23.9427C50.6872 23.9427 49.8952 24.2823 49.6012 24.7203V29.4003H47.7988Z" fill="#4F5461"/>
<path d="M52.4512 25.8087C52.4512 23.8719 53.8084 22.2327 56.0512 22.2327C58.294 22.2327 59.6704 23.8719 59.6704 25.8087C59.6704 27.7455 58.3192 29.4003 56.0572 29.4003C53.7952 29.4003 52.4512 27.7455 52.4512 25.8087ZM57.8104 25.8087C57.8104 24.7491 57.1876 23.8299 56.0572 23.8299C54.9268 23.8299 54.3172 24.7491 54.3172 25.8087C54.3172 26.8683 54.9388 27.8019 56.0572 27.8019C57.1756 27.8019 57.8104 26.8803 57.8104 25.8087Z" fill="#4F5461"/>
<path d="M65.7171 29.3999V28.3535C65.4712 28.6792 65.153 28.9433 64.7875 29.1249C64.422 29.3065 64.0193 29.4007 63.6111 29.3999C61.8999 29.3999 60.5859 28.0991 60.5859 25.8083C60.5859 23.5895 61.8723 22.2323 63.6111 22.2323C64.0199 22.2283 64.4239 22.3211 64.7899 22.5032C65.156 22.6853 65.4737 22.9515 65.7171 23.2799V19.7999H67.5279V29.3999H65.7171ZM65.7171 27.0239V24.6071C65.4207 24.1547 64.7703 23.8295 64.1763 23.8295C63.1443 23.8295 62.4375 24.6347 62.4375 25.8083C62.4375 26.9819 63.1443 27.8015 64.1763 27.8015C64.7703 27.8015 65.4207 27.4799 65.7171 27.0239Z" fill="#4F5461"/>
<path d="M73.92 29.4003V28.3683C73.6133 28.6971 73.2415 28.9586 72.8284 29.1363C72.4153 29.3139 71.9697 29.4038 71.52 29.4003C70.0213 29.4003 69.3145 28.5795 69.3145 27.2511V22.4019H71.1144V26.5443C71.1144 27.4911 71.61 27.8019 72.3732 27.8019C72.675 27.7976 72.9719 27.7256 73.2419 27.591C73.512 27.4563 73.7483 27.2626 73.9332 27.0243V22.4019H75.7332V29.4003H73.92Z" fill="#4F5461"/>
<path d="M77.0664 25.8087C77.0664 23.7171 78.5928 22.2327 80.6856 22.2327C82.086 22.2327 82.9344 22.8399 83.3868 23.4627L82.212 24.5643C82.0547 24.329 81.8398 24.138 81.5877 24.0094C81.3356 23.8809 81.0548 23.819 80.772 23.8299C79.6824 23.8299 78.9192 24.6219 78.9192 25.8087C78.9192 26.9955 79.6824 27.8019 80.772 27.8019C81.0554 27.8071 81.3357 27.7413 81.5872 27.6105C81.8387 27.4797 82.0535 27.2881 82.212 27.0531L83.3868 28.1559C82.9344 28.7775 82.086 29.4003 80.6856 29.4003C78.5988 29.4003 77.0664 27.9159 77.0664 25.8087Z" fill="#4F5461"/>
<path d="M84.9312 27.5194V23.971H83.8008V22.4014H84.9312V20.5354H86.7312V22.4014H88.116V23.971H86.7276V27.0382C86.7276 27.4762 86.9532 27.8014 87.3492 27.8014C87.6168 27.8014 87.8724 27.703 87.9708 27.5902L88.3524 28.9606C88.0848 29.2006 87.6036 29.3998 86.8536 29.3998C85.596 29.3998 84.9312 28.7494 84.9312 27.5194Z" fill="#4F5461"/>
<path d="M99.6131 29.3999V25.2575H95.1599V29.3999H93.1523V19.7999H95.1599V23.5043H99.6143V19.7999H101.64V29.3999H99.6131Z" fill="#4F5461"/>
<path d="M108.059 29.4003V28.3683C107.752 28.6971 107.38 28.9586 106.967 29.1363C106.554 29.3139 106.108 29.4038 105.659 29.4003C104.16 29.4003 103.453 28.5795 103.453 27.2511V22.4019H105.247V26.5443C105.247 27.4911 105.743 27.8019 106.506 27.8019C106.808 27.7976 107.105 27.7256 107.375 27.591C107.645 27.4563 107.881 27.2626 108.066 27.0243V22.4019H109.866V29.4003H108.059Z" fill="#4F5461"/>
<path d="M116.25 29.4001V25.1017C116.25 24.1549 115.755 23.8297 114.991 23.8297C114.688 23.8348 114.39 23.9087 114.12 24.0459C113.849 24.1832 113.614 24.38 113.431 24.6217V29.4001H111.631V22.4017H113.431V23.2801C113.733 22.9475 114.103 22.6825 114.515 22.5024C114.926 22.3223 115.372 22.2311 115.821 22.2349C117.333 22.2349 118.054 23.0821 118.054 24.4117V29.4001H116.25Z" fill="#4F5461"/>
<path d="M120.199 27.5194V23.971H119.068V22.4014H120.199V20.5354H121.999V22.4014H123.384V23.971H121.999V27.0382C121.999 27.4762 122.224 27.8014 122.62 27.8014C122.888 27.8014 123.144 27.703 123.243 27.5902L123.624 28.9606C123.356 29.2006 122.875 29.3998 122.125 29.3998C120.864 29.3998 120.199 28.7494 120.199 27.5194Z" fill="#4F5461"/>
</svg>
