<svg width="103" height="48" viewBox="0 0 103 48" fill="none" xmlns="http://www.w3.org/2000/svg">
<path d="M37.6055 29.0035L38.5661 26.8189C39.6043 27.5774 40.9833 27.9719 42.3468 27.9719C43.3539 27.9719 43.9892 27.5926 43.9892 27.0161C43.9737 25.408 37.9618 26.6672 37.9154 22.6317C37.8999 20.5836 39.7592 19.0059 42.3933 19.0059C43.9582 19.0059 45.5232 19.3851 46.6388 20.2499L45.7401 22.48C44.7174 21.8428 43.4469 21.3877 42.2383 21.3877C41.4171 21.3877 40.8748 21.767 40.8748 22.2524C40.8903 23.8302 46.9486 22.9655 47.0106 26.8189C47.0106 28.9125 45.1978 30.3841 42.5947 30.3841C40.6889 30.3841 38.938 29.9441 37.6055 29.0035" fill="#4F5461"/>
<path d="M74.4698 26.03C73.9894 26.8492 73.0908 27.4106 72.0526 27.4106C70.5187 27.4106 69.2791 26.1969 69.2791 24.695C69.2791 23.193 70.5187 21.9794 72.0526 21.9794C73.0908 21.9794 73.9894 22.5407 74.4698 23.3599L77.1193 21.9187C76.1277 20.1892 74.2219 19.0059 72.0526 19.0059C68.8453 19.0059 66.2422 21.5546 66.2422 24.695C66.2422 27.8353 68.8453 30.3841 72.0526 30.3841C74.2373 30.3841 76.1277 29.2159 77.1193 27.4712L74.4698 26.03Z" fill="#4F5461"/>
<rect x="48.3438" y="14.2875" width="3.31582" height="15.884" fill="#4F5461"/>
<path d="M78.418 14.2871V30.1711H81.7338V25.4074L85.6694 30.1711H89.9149L84.9102 24.5123L89.543 19.2328H85.4835L81.7338 23.6172V14.2871H78.418Z" fill="#4F5461"/>
<path fill-rule="evenodd" clip-rule="evenodd" d="M61.5143 20.523V19.2334H64.8301V30.1565H61.5143V28.867C60.972 29.762 59.624 30.3841 58.214 30.3841C55.301 30.3841 53.0078 27.8353 53.0078 24.6798C53.0078 21.5242 55.301 19.0059 58.214 19.0059C59.624 19.0059 60.972 19.6279 61.5143 20.523ZM58.9298 27.4107C60.0454 27.4107 61.037 26.8342 61.5173 26.0605V23.3752C61.037 22.5863 60.0454 21.9795 58.9298 21.9795C57.3958 21.9795 56.1562 23.1932 56.1562 24.6951C56.1562 26.197 57.3958 27.4107 58.9298 27.4107Z" fill="#4F5461"/>
<path d="M17.1062 26.0455C17.1062 27.153 16.192 28.0481 15.0609 28.0481C13.9298 28.0481 13.0156 27.153 13.0156 26.0455C13.0156 24.9381 13.9298 24.043 15.0609 24.043H17.1062V26.0455Z" fill="#4F5461"/>
<path d="M18.1289 26.0455C18.1289 24.9381 19.0431 24.043 20.1742 24.043C21.3053 24.043 22.2195 24.9381 22.2195 26.0455V31.0519C22.2195 32.1594 21.3053 33.0545 20.1742 33.0545C19.0431 33.0545 18.1289 32.1594 18.1289 31.0519V26.0455Z" fill="#4F5461"/>
<path d="M20.1742 18.0051C19.0431 18.0051 18.1289 17.11 18.1289 16.0026C18.1289 14.8951 19.0431 14 20.1742 14C21.3053 14 22.2195 14.8951 22.2195 16.0026V18.0051H20.1742Z" fill="#4F5461"/>
<path d="M20.1739 19.0212C21.305 19.0212 22.2192 19.9163 22.2192 21.0238C22.2192 22.1313 21.305 23.0264 20.1739 23.0264H15.0453C13.9142 23.0264 13 22.1313 13 21.0238C13 19.9163 13.9142 19.0212 15.0453 19.0212H20.1739Z" fill="#4F5461"/>
<path d="M28.3711 21.024C28.3711 19.9165 29.2853 19.0214 30.4164 19.0214C31.5475 19.0214 32.4616 19.9165 32.4616 21.024C32.4616 22.1315 31.5475 23.0265 30.4164 23.0265H28.3711V21.024Z" fill="#4F5461"/>
<path d="M27.3484 21.0243C27.3484 22.1318 26.4342 23.0269 25.3031 23.0269C24.172 23.0269 23.2578 22.1318 23.2578 21.0243V16.0027C23.2578 14.8953 24.172 14.0002 25.3031 14.0002C26.4342 14.0002 27.3484 14.8953 27.3484 16.0027V21.0243Z" fill="#4F5461"/>
<path d="M25.3031 29.0492C26.4342 29.0492 27.3484 29.9443 27.3484 31.0518C27.3484 32.1592 26.4342 33.0543 25.3031 33.0543C24.172 33.0543 23.2578 32.1592 23.2578 31.0518V29.0492H25.3031Z" fill="#4F5461"/>
<path d="M25.3031 28.0477C24.172 28.0477 23.2578 27.1526 23.2578 26.0452C23.2578 24.9377 24.172 24.0426 25.3031 24.0426H30.4318C31.5629 24.0426 32.477 24.9377 32.477 26.0452C32.477 27.1526 31.5629 28.0477 30.4318 28.0477H25.3031Z" fill="#4F5461"/>
</svg>
