<svg width="102" height="16" viewBox="0 0 102 16" fill="none" xmlns="http://www.w3.org/2000/svg">
<path d="M19.0029 5.33298H28.5127V0H19.0029V5.33298Z" fill="#4F5461"/>
<path d="M0 0.00107421V5.33405H4.74645V16H9.4929V5.33405H14.2559V15.9987H28.5122V10.6657H19.0023L19.0029 5.33298L14.2563 5.33274V0.00107421H0Z" fill="#4F5461"/>
<path d="M40.6342 4.02806H33.6501V6.24703H35.9894V13.2023H38.2948V6.24703H40.6342V4.02806Z" fill="#4F5461"/>
<path fill-rule="evenodd" clip-rule="evenodd" d="M40.3941 9.77066C40.3941 7.38387 41.6146 6.17184 43.2589 6.17184C44.988 6.17184 46.0559 7.42117 46.039 9.97577C46.039 10.1809 46.039 10.3301 46.022 10.4419H42.3435C42.4283 11.2065 42.8351 11.5421 43.4115 11.5421C43.9709 11.5421 44.4116 11.4116 45.0388 11.0573L45.8525 12.5677C45.0897 13.0711 44.293 13.3508 43.3098 13.3508C41.4282 13.3508 40.3941 11.8777 40.3941 9.77066ZM43.2081 7.92463C42.7165 7.92463 42.4452 8.27892 42.3774 8.96885H44.1574C44.0557 8.27892 43.8353 7.92463 43.2081 7.92463Z" fill="#4F5461"/>
<path d="M50.1251 11.43C49.5488 11.43 49.2437 10.8706 49.2437 9.77047C49.2437 8.68896 49.5149 8.07362 50.0743 8.07362C50.532 8.07362 50.7354 8.35332 51.0405 8.96866L52.5153 7.73798C51.9729 6.76835 51.2948 6.17165 50.1082 6.17165C48.1079 6.17165 47.1247 7.6261 47.1247 9.73318C47.1247 12.0454 48.2266 13.332 50.0573 13.332C51.1592 13.332 51.8373 12.8658 52.5662 11.6911L51.21 10.5163C50.8032 11.1876 50.532 11.43 50.1251 11.43Z" fill="#4F5461"/>
<path d="M55.9369 6.76946C56.3268 6.45247 56.7675 6.17276 57.5134 6.17276C58.8695 6.17276 59.5306 7.19834 59.5306 9.00708V13.2212H57.3778V9.30542C57.3778 8.42902 57.1066 8.18662 56.6658 8.18662C56.2081 8.18662 55.9369 8.42903 55.9369 9.28678V13.2212H53.784V4.60643L55.9369 3.65545V6.76946Z" fill="#4F5461"/>
<path d="M64.7057 11.1327C63.7056 11.1327 63.2987 10.0139 63.2987 8.61535C63.2987 7.16091 63.7225 6.09804 64.6887 6.09804C65.4516 6.09804 65.7397 6.6388 66.0279 7.49655L68.1299 6.58286C67.5536 4.84871 66.7399 3.87908 64.6887 3.87908C62.4511 3.87908 60.8746 5.66917 60.8746 8.61535C60.8746 11.3378 62.1969 13.3516 64.6718 13.3516C66.6551 13.3516 67.5875 12.1769 68.1469 10.9835L66.1974 9.84604C65.7397 10.7038 65.4346 11.1327 64.7057 11.1327Z" fill="#4F5461"/>
<path d="M71.6063 6.32082V6.82429C71.9623 6.43271 72.3861 6.17165 72.9455 6.17165C73.4032 6.17165 73.7083 6.30218 73.9626 6.47L73.454 8.91273C73.1828 8.57709 72.8777 8.33468 72.4539 8.33468C71.9284 8.33468 71.6063 8.61438 71.6063 9.45348V13.2015H69.4534V6.32082H71.6063Z" fill="#4F5461"/>
<path d="M78.5544 10.2561C78.5544 11.1139 78.2832 11.3563 77.8425 11.3563C77.4017 11.3563 77.1305 11.1139 77.1305 10.2375V6.32164H74.9777V10.5358C74.9777 12.3445 75.6388 13.3515 77.0119 13.3515C77.7408 13.3515 78.1985 13.0718 78.5714 12.7548V13.2209H80.7242V6.34029H78.5714V10.2561H78.5544Z" fill="#4F5461"/>
<path d="M84.4187 6.76835C84.8086 6.45135 85.2493 6.17165 85.9952 6.17165C87.3683 6.17165 88.0124 7.19722 88.0124 8.96866V13.1828H85.8596V9.26701C85.8596 8.39061 85.5884 8.1482 85.1476 8.1482C84.6899 8.1482 84.4187 8.39061 84.4187 9.24836V13.1828H82.2659V6.30218H84.4187V6.76835Z" fill="#4F5461"/>
<path d="M92.2856 11.4302C91.7092 11.4302 91.4041 10.8708 91.4041 9.77066C91.4041 8.68915 91.6753 8.07381 92.2178 8.07381C92.6755 8.07381 92.8789 8.35351 93.184 8.96885L94.6588 7.73816C94.1164 6.76853 93.4383 6.17184 92.2517 6.17184C90.2514 6.17184 89.2682 7.62629 89.2682 9.73337C89.2682 12.0456 90.3701 13.3322 92.2008 13.3322C93.3027 13.3322 93.9808 12.866 94.7097 11.6913L93.3536 10.5165C92.9806 11.1878 92.6924 11.4302 92.2856 11.4302Z" fill="#4F5461"/>
<path d="M98.1023 6.76946C98.4922 6.45247 98.9329 6.17276 99.6788 6.17276C101.052 6.17276 101.713 7.19834 101.696 9.00708V13.2212H99.5431V9.30542C99.5431 8.42902 99.2719 8.18662 98.8312 8.18662C98.3735 8.18662 98.1023 8.42903 98.1023 9.28678V13.2212H95.9494V4.60643L98.1023 3.65545V6.76946Z" fill="#4F5461"/>
</svg>
