<svg width="70" height="17" viewBox="0 0 70 17" fill="none" xmlns="http://www.w3.org/2000/svg">
<path d="M22.603 6.64558C22.603 5.43349 21.3819 4.14617 19.2688 4.14617C16.896 4.14617 14.2892 5.82637 13.8909 9.17842C13.4839 12.5639 15.6662 14.0686 17.8659 14.0686C20.0656 14.0686 21.2174 13.241 22.3952 12.1376C21.3819 10.9088 20.0742 11.4772 19.8231 11.6026C19.546 11.7363 19.1909 11.9202 18.4634 11.9202C17.6147 11.9202 16.7487 11.5524 16.7487 10.0227C22.1873 9.50443 22.603 7.85766 22.603 6.64558ZM19.9097 6.8462C19.875 7.22236 19.7192 7.86602 16.9652 8.22547C17.5455 6.23598 18.654 6.08551 19.1649 6.08551C19.6412 6.08551 19.9443 6.44496 19.9097 6.8462ZM10.6953 7.17221C10.6953 7.17221 9.52617 10.7165 9.4309 11.0091C9.39626 10.7082 8.53891 4.34679 8.53891 4.34679C6.54707 4.34679 5.48188 5.7177 4.91897 7.16385C4.91897 7.16385 3.4987 10.7165 3.37746 11.0174C3.3688 10.7416 3.16096 7.20564 3.16096 7.20564C3.03971 5.43349 1.35964 4.35515 0 4.35515L1.64543 13.9933C3.73253 13.985 4.85835 12.6224 5.44724 11.1763C5.44724 11.1763 6.70296 8.04157 6.75492 7.89946C6.76358 8.03321 7.65557 13.9933 7.65557 13.9933C9.75133 13.9933 10.8772 12.7144 11.4834 11.3184L14.4192 4.35515C12.3494 4.35515 11.2582 5.7177 10.6953 7.17221ZM30.2932 4.12945C29.0028 4.12945 28.0156 4.80655 27.1842 5.8013V5.79294L27.929 0C26.2143 0 24.82 1.43779 24.5515 3.57774L23.2525 13.9181C24.2398 13.9181 25.2876 13.6422 25.8506 12.9401C26.3528 13.567 27.1063 14.0686 28.2234 14.0686C31.1159 14.0686 33.0991 10.8252 33.0991 7.78243C33.0818 5.00717 31.6875 4.12945 30.2932 4.12945ZM30.0247 9.10319C29.7216 10.8001 28.743 11.9537 27.7991 11.9537C26.8465 11.9537 26.4394 11.5441 26.4394 11.5441C26.6213 10.0561 26.7339 9.14498 27.0803 8.35922C27.4267 7.57345 28.2494 6.31957 29.1068 6.31957C29.9468 6.31957 30.3279 7.39791 30.0247 9.10319ZM40.3217 4.35515H38.3038L38.3125 4.25484C38.4511 2.98424 38.7628 2.3155 39.7934 2.20683C40.4949 2.13996 40.8066 1.78887 40.8846 1.40435C40.9452 1.10342 41.1357 0.0585145 41.1357 0.0585145C37.0828 0.0334369 35.8097 1.722 35.4806 4.29664L35.472 4.35515H35.4287C34.7705 4.35515 34.0431 5.07404 33.9218 5.9852L33.8785 6.31957H35.2295L34.095 15.3642L33.7486 16.9859C33.7919 16.9859 33.8439 16.9943 33.8872 16.9943C35.7837 16.9274 36.9962 15.4813 37.2646 13.3831L38.148 6.31957H38.7802C39.4037 6.31957 40.1311 5.7177 40.261 4.7146L40.3217 4.35515ZM50.8178 4.18797C48.4882 4.18797 46.2885 5.84309 45.613 8.44281C44.9375 11.0425 45.9594 14.1187 49.3888 14.1187C52.8096 14.1187 54.7841 10.9171 54.7841 8.25055C54.7841 5.60068 52.9222 4.18797 50.8178 4.18797ZM51.7617 9.0196C51.6405 10.1982 51.1035 11.9871 49.6313 11.9871C48.1504 11.9871 48.3583 9.89731 48.5055 8.90257C48.6614 7.84095 49.2763 6.32793 50.6013 6.32793C51.7877 6.32793 51.9003 7.69048 51.7617 9.0196ZM66.2935 7.17221C66.2935 7.17221 65.1243 10.7165 65.0291 11.0091C64.9944 10.7082 64.1371 4.34679 64.1371 4.34679C62.1452 4.34679 61.08 5.7177 60.5171 7.16385C60.5171 7.16385 59.0969 10.7165 58.9756 11.0174C58.967 10.7416 58.7591 7.20564 58.7591 7.20564C58.6379 5.43349 56.9578 4.35515 55.5982 4.35515L57.2349 13.9933C59.322 13.985 60.4479 12.6224 61.0367 11.1763C61.0367 11.1763 62.2925 8.04157 62.3358 7.89946C62.3531 8.03321 63.2364 13.9933 63.2364 13.9933C65.3322 13.9933 66.458 12.7144 67.0642 11.3184L70 4.35515C67.9389 4.35515 66.8477 5.7177 66.2935 7.17221ZM42.2269 0.0585145L40.5295 13.2744L40.1831 14.9045C40.2264 14.9045 40.2784 14.9128 40.3217 14.9128C42.149 14.8878 43.448 13.3413 43.6905 11.3936L44.6691 3.8118C44.9635 1.4963 43.5346 0.0585145 42.2269 0.0585145Z" fill="#4F5461"/>
</svg>
