<svg width="172" height="48" viewBox="0 0 172 48" fill="none" xmlns="http://www.w3.org/2000/svg">
<g clip-path="url(#clip0)">
<path d="M30.8227 29.9051H24.1764V29.426H24.5329C24.9734 29.426 25.2329 29.2199 25.2329 28.6929V18.3439C25.2329 17.8168 24.9734 17.6117 24.5329 17.6117H24.1764V17.1282H30.8227V21.5202H30.3822V21.4716C30.3822 18.8699 29.5797 17.6903 28.1094 17.6903H27.0187V22.9909H27.2966C28.1257 22.9909 28.5143 22.2102 28.5143 20.5637V20.5151H28.9558V26.0436H28.5143V26.0106C28.5143 24.397 28.143 23.5629 27.2966 23.5629H27.0187V29.3474H28.0427C29.4967 29.3474 30.3822 27.955 30.3822 25.5821V25.5321H30.8227V29.9051ZM23.7529 29.9051H19.8521V29.426H20.1947C20.6317 29.426 20.9096 29.2199 20.9096 28.6929V23.6751H18.0648V28.6925C18.0648 29.2216 18.3417 29.4257 18.7808 29.4257H19.1233V29.9048H15.2225V29.4257H15.5627C16.0032 29.4257 16.2786 29.2196 16.2786 28.6925V18.3439C16.2786 17.8168 16.0032 17.6117 15.5627 17.6117H15.2225V17.1282H19.1233V17.6121H18.7808C18.3413 17.6121 18.0648 17.8171 18.0648 18.3442V22.9909H20.9096V18.3439C20.9096 17.8168 20.6317 17.6117 20.1947 17.6117H19.8521V17.1282H23.7529V17.6121H23.4128C22.9733 17.6121 22.6978 17.8171 22.6978 18.3442V28.6929C22.6978 29.222 22.9733 29.426 23.4128 29.426H23.7529V29.9051ZM15.009 21.5515H14.5709V21.5039C14.5709 19.4473 13.7765 17.69 12.8494 17.69H12.4584V28.6935C12.4584 29.2216 12.7363 29.4257 13.1733 29.4257H13.5792V29.9048H9.56767V29.4257H9.95626C10.3943 29.4257 10.6701 29.2196 10.6701 28.6935V17.69H10.3289C9.40192 17.69 8.60743 19.3365 8.60743 21.5039V21.5515H8.16797V17.1279H15.009V21.5515ZM64.184 29.9051H57.7315V29.426H58.089C58.5295 29.426 58.8039 29.2346 58.8039 28.7088V18.3269C58.8039 17.8022 58.5295 17.6117 58.089 17.6117H57.7315V17.1282H61.6334V17.6121H61.2897C60.8517 17.6121 60.5748 17.8025 60.5748 18.3272V29.3478H61.5365C63.2857 29.3478 63.7435 27.383 63.7435 25.5654V25.5168H64.184V29.9051ZM45.7377 17.6114H45.6072C44.9813 17.6114 44.6605 17.7226 44.438 18.774L42.0663 30H41.333L39.8538 22.6563H39.8375L38.3271 30H37.5949L35.2702 18.486C35.1225 17.7539 34.9083 17.6111 34.2474 17.6111H34.1989V17.1275H37.7087V17.6114H37.643C37.1381 17.6114 37.0111 17.7542 37.0111 18.0895C37.0111 18.1643 37.025 18.315 37.0433 18.4068L38.5226 26.2027H38.5527L39.5119 21.0721L39.0101 18.4863C38.8856 17.8484 38.7368 17.6114 38.2122 17.6114H38.1326V17.1275H41.6085V17.6114H41.5452C40.9272 17.6114 40.7656 17.8256 40.7645 18.2629C40.7645 18.383 40.7829 18.5166 40.8119 18.6628L42.2926 26.1061H42.3248L43.7224 18.6458C43.7432 18.537 43.756 18.3888 43.756 18.2946C43.756 17.8321 43.583 17.6114 42.8937 17.6114H42.7957V17.1275H45.7384V17.6114H45.7377ZM57.4882 29.9051H47.573V29.426H47.6561C48.3284 29.426 48.5347 29.2502 48.5347 28.8843C48.5347 28.7813 48.5129 28.6442 48.4862 28.498L48.1738 26.8087H45.9643L45.6578 28.498C45.629 28.6568 45.6083 28.7721 45.6083 28.8843C45.6083 29.2808 45.7661 29.426 46.4363 29.426H46.501V29.9051H43.7221V29.426H43.8684C44.438 29.426 44.7633 29.2958 44.9086 28.5443L47.1671 17H47.9973L50.3219 28.4977C50.4603 29.1924 50.8247 29.4257 51.1337 29.4257H51.3943C51.8337 29.4257 52.1092 29.2342 52.1092 28.7085V18.3269C52.1092 17.8022 51.8337 17.6117 51.3943 17.6117H51.0531V17.1279H54.9529V17.6117H54.5944C54.1563 17.6117 53.8795 17.8022 53.8795 18.3269V29.3474H54.8387C56.5924 29.3474 57.0481 27.3963 57.0481 25.5505V25.5019H57.4886V29.9051H57.4882ZM48.0457 26.218L47.0703 20.5637H47.0367L46.0623 26.218H48.0457ZM110.293 21.5515H109.853V21.5029C109.853 19.4473 109.06 17.691 108.13 17.691H107.74V28.6935C107.74 29.2203 108.016 29.4277 108.455 29.4277H108.815V29.9034H104.863V29.4277H105.237C105.678 29.4277 105.953 29.2193 105.953 28.6935V17.691H105.612C104.681 17.691 103.89 19.3375 103.89 21.5029V21.5515H103.45V17.1279H110.293V21.5515H110.293ZM102.882 29.9034H96.2348V29.4277H96.5933C97.0314 29.4277 97.2919 29.2193 97.2919 28.6935V18.3445C97.2919 17.8178 97.0314 17.6104 96.5933 17.6104H96.2348V17.1275H102.882V21.5196H102.444V21.472C102.444 18.8692 101.638 17.6906 100.169 17.6906H99.0792V22.9903H99.3546C100.185 22.9903 100.574 22.2037 100.574 20.563V20.5154H101.012V26.0439H100.574V26.0123C100.574 24.3964 100.201 23.5646 99.3546 23.5646H99.0792V29.3457H100.102C101.555 29.3457 102.444 27.9553 102.444 25.5804V25.5338H102.882V29.9034ZM95.7964 29.9034H89.1491V29.4277H89.5066C89.946 29.4277 90.2066 29.2193 90.2066 28.6935V18.3445C90.2066 17.8178 89.946 17.6104 89.5066 17.6104H89.1491V17.1275H95.7964V21.5196H95.3559V21.472C95.3559 18.8692 94.5534 17.6906 93.0797 17.6906H91.9911V22.9903H92.2679C93.096 22.9903 93.4891 22.2037 93.4891 20.563V20.5154H93.9271V26.0439H93.4891V26.0123C93.4891 24.3964 93.1119 23.5646 92.2679 23.5646H91.9911V29.3457H93.015C94.469 29.3457 95.3559 27.9553 95.3559 25.5804V25.5338H95.7964V29.9034ZM80.8281 21.5515H80.3911V21.5029C80.3911 19.4473 79.5966 17.691 78.6671 17.691H78.2796V28.6935C78.2796 29.2203 78.5529 29.4277 78.9921 29.4277H79.3332V29.9034H75.4013V29.4277H75.7736C76.2141 29.4277 76.4895 29.2193 76.4895 28.6935V17.691H76.1484C75.2189 17.691 74.4268 19.3375 74.4268 21.5029V21.5515H73.9874V17.1279H80.8274V21.5515H80.8281ZM73.9711 26.8093C73.9711 29.0676 72.577 29.999 70.9478 29.999C69.7658 29.999 69.2253 29.6171 68.6568 29.2342L68.3502 29.9027H68.009V25.5165H68.4471V25.6457C68.4471 28.7255 70.0257 29.427 70.8188 29.427C71.9731 29.427 72.5565 28.5919 72.5565 27.3963C72.5565 25.9324 71.6191 24.8581 70.2644 23.8553C69.0398 22.941 67.91 21.8215 67.91 19.9587C67.91 18.0334 69.1149 17.032 70.5586 17.032C71.76 17.032 72.3181 17.5159 72.6386 17.7865L72.9649 17.1612H73.2887V21.5679H72.8507V21.441C72.8507 19.0512 72.1185 17.6111 70.6738 17.6111C69.7952 17.6111 69.2741 18.2422 69.2741 19.2562C69.2741 20.4562 69.9969 21.137 71.3402 22.1582C72.8261 23.2922 73.9711 24.4878 73.9711 26.8093ZM89.0529 28.1617C89.0529 29.2346 88.6377 29.9997 87.5747 29.9997C86.5058 29.9997 86.0559 29.2247 85.9812 27.637L85.868 25.2587C85.8068 24.0053 85.3168 23.6588 84.5836 23.6588H84.1109V28.6932C84.1109 29.2189 84.323 29.4274 84.7611 29.4274H85.1833V29.9031H81.2523V29.4274H81.6247C82.0641 29.4274 82.3396 29.2189 82.3396 28.6932V18.3442C82.3396 17.8171 82.0641 17.61 81.6247 17.61H81.2523V17.1272H84.8095C86.9612 17.1272 88.3034 18.2126 88.3034 20.2284C88.3034 22.3384 86.8124 23.1338 85.4923 23.3874V23.4191C86.574 23.5299 87.5598 24.3256 87.6221 25.5335L87.7695 28.3208C87.7961 28.8806 87.8653 29.0438 88.1418 29.0438C88.4657 29.0438 88.5467 28.8034 88.5467 27.9706V27.5085H89.0529V28.1617ZM86.4342 20.2614C86.4342 18.2626 85.6317 17.6903 84.5338 17.6903H84.1105V23.0702H84.5995C85.7445 23.0705 86.4342 22.3068 86.4342 20.2614ZM163.831 29.122C163.831 29.6035 163.47 29.999 163.084 29.999C162.701 29.999 162.339 29.6035 162.339 29.122C162.339 28.6449 162.701 28.2586 163.084 28.2586C163.47 28.2586 163.831 28.6449 163.831 29.122ZM148.476 17.6107H148.128C147.723 17.6107 147.397 17.9123 147.397 18.5353V29.9524H146.762L142.702 19.8938H142.67V28.4963C142.67 29.123 142.993 29.4267 143.401 29.4267H143.745V29.9038H141.011V29.4267H141.355C141.76 29.4267 142.086 29.123 142.086 28.4963V18.4071C142.086 17.9606 141.909 17.6104 141.45 17.6104H141.012V17.1279H143.483L146.78 25.3533H146.809V18.5353C146.809 17.9066 146.485 17.6107 146.083 17.6107H145.743V17.1279H148.477V17.6107H148.476ZM118.877 17.6107H118.522C118.08 17.6107 117.806 17.8158 117.806 18.3449V27.2545C117.806 29.2543 116.528 29.999 114.895 29.999C113.729 29.999 112.556 29.0618 112.556 27.2545C112.556 26.2857 113.169 25.8674 113.662 25.8674C114.171 25.8674 114.539 26.2211 114.539 26.8226C114.539 27.5931 114.081 27.9182 113.484 28.0022C113.484 28.6629 113.998 29.4267 114.878 29.4267C115.726 29.4267 116.019 28.9656 116.019 27.5897V18.3449C116.019 17.8168 115.761 17.6107 115.319 17.6107H114.913V17.1279H118.877V17.6107H118.877ZM161.577 29.9038H151.638V29.4267H151.737C152.408 29.4267 152.614 29.2509 152.614 28.884C152.614 28.7809 152.59 28.6439 152.565 28.4963L152.257 26.809H150.05L149.742 28.4963C149.713 28.6572 149.694 28.7717 149.694 28.884C149.694 29.2794 149.849 29.4267 150.52 29.4267H150.586V29.9038H147.804V29.4267H147.95C148.525 29.4267 148.849 29.2951 148.996 28.5463L151.251 17H152.078L154.404 28.4967C154.543 29.1934 154.91 29.427 155.223 29.427H155.482C155.92 29.427 156.195 29.2346 156.195 28.7099V18.3279C156.195 17.8022 155.92 17.6107 155.482 17.6107H155.127V17.1279H159.049V17.6107H158.677C158.238 17.6107 157.961 17.8022 157.961 18.3279V29.3451H158.92C160.673 29.3451 161.131 27.3963 161.131 25.5651V25.5165H161.577V29.9038H161.577ZM152.127 26.218L151.151 20.5637H151.12L150.148 26.218H152.127ZM140.946 28.1617C140.946 29.2346 140.533 29.9997 139.469 29.9997C138.403 29.9997 137.952 29.2247 137.875 27.637L137.762 25.2587C137.7 23.9999 137.214 23.6588 136.48 23.6588H136.008V28.6932C136.008 29.2189 136.22 29.4274 136.66 29.4274H137.063V29.9031H133.148V29.4274H133.523C133.962 29.4274 134.234 29.2189 134.234 28.6932V18.3442C134.234 17.8219 133.968 17.61 133.539 17.61H132.854C132.449 17.61 132.205 17.9443 132.205 18.5346V27.0467C132.205 28.7442 131.631 29.9997 129.768 29.9997C127.786 29.9997 126.632 28.8064 126.632 27.0467V18.3442C126.632 17.8161 126.372 17.61 125.933 17.61H125.572V17.1272H129.492V17.61H129.134C128.692 17.61 128.436 17.8161 128.436 18.3442V27.1586C128.436 28.5953 129.012 29.3614 129.997 29.3614C130.993 29.3614 131.603 28.7269 131.603 27.1586V18.5346C131.603 17.9443 131.376 17.61 130.969 17.61H130.564V17.1272H136.707C138.857 17.1272 140.201 18.2126 140.201 20.2284C140.201 22.3384 138.706 23.1338 137.388 23.3874V23.4191C138.469 23.5299 139.455 24.3209 139.52 25.5335L139.666 28.3208C139.694 28.8806 139.763 29.0438 140.038 29.0438C140.362 29.0438 140.444 28.8034 140.444 27.9706V27.5085H140.946V28.1617ZM138.332 20.2614C138.332 18.2626 137.528 17.6903 136.431 17.6903H136.007V23.0702H136.496C137.641 23.0705 138.332 22.3068 138.332 20.2614ZM125.607 23.4854C125.607 27.1161 124.395 29.9997 122.176 29.9997C120.013 29.9997 118.798 27.1161 118.798 23.4854C118.798 19.8561 119.962 17.0323 122.176 17.0323C124.368 17.0323 125.607 19.8561 125.607 23.4854ZM123.592 26.522V20.4838C123.592 18.2755 123.092 17.61 122.176 17.61C121.261 17.61 120.796 18.2425 120.796 20.5154V26.504C120.796 28.633 121.21 29.4274 122.176 29.4274C123.125 29.4274 123.592 28.581 123.592 26.522Z" fill="#4F5461"/>
</g>
<defs>
<clipPath id="clip0">
<rect x="8" y="17" width="156" height="13" fill="white"/>
</clipPath>
</defs>
</svg>
